<svg xmlns="http://www.w3.org/2000/svg" width="1024" height="558" viewBox="0 0 1024 558">
<g>
<path d="M 117.25 381.35 C116.31,380.96 116.00,375.63 116.00,359.52 L 116.00 338.20 L 124.25 329.31 C128.79,324.41 140.65,311.43 150.61,300.46 C160.58,289.48 171.49,277.58 174.87,274.00 L 181.02 267.50 L 192.50 279.49 L 203.98 291.48 L 206.31 288.99 C207.59,287.62 212.66,282.00 217.57,276.50 C222.48,271.00 229.03,263.80 232.12,260.50 C235.21,257.20 244.02,247.52 251.71,239.00 C259.39,230.48 268.01,220.95 270.85,217.84 L 276.03 212.19 L 270.43 206.84 C267.36,203.90 264.20,201.14 263.42,200.70 C260.69,199.17 262.05,198.07 269.25,195.99 C286.41,191.04 298.13,187.59 307.32,184.79 C312.72,183.15 317.33,182.00 317.57,182.23 C318.06,182.73 316.36,194.24 311.72,221.79 L 308.47 241.09 L 305.98 238.86 C304.62,237.63 301.38,234.69 298.79,232.32 C296.20,229.94 293.65,228.00 293.12,228.00 C292.59,228.00 286.61,234.16 279.83,241.69 C264.55,258.65 238.99,286.83 221.46,306.02 C214.16,314.00 207.33,321.61 206.26,322.93 L 204.32 325.32 L 193.03 313.66 C186.81,307.25 181.38,302.00 180.95,302.00 C180.53,302.00 171.95,311.11 161.90,322.25 C151.85,333.39 140.98,345.30 137.76,348.72 C131.97,354.86 131.90,355.01 132.20,360.22 L 132.50 365.50 L 152.00 365.68 C162.73,365.77 172.31,365.89 173.29,365.93 C174.88,365.99 175.05,366.88 174.79,373.75 L 174.50 381.50 L 146.50 381.68 C131.10,381.78 117.94,381.63 117.25,381.35 ZM 200.49 381.16 C199.77,380.43 200.09,348.87 200.85,346.29 C201.21,345.08 211.85,333.19 224.50,319.86 C241.57,301.88 247.53,294.98 247.62,293.07 C247.68,291.66 247.79,289.75 247.87,288.83 C247.94,287.91 249.17,285.77 250.59,284.08 C252.81,281.44 253.85,281.00 257.90,281.00 C261.82,281.00 263.10,281.50 265.44,283.94 C269.47,288.14 269.51,293.81 265.54,297.95 C263.10,300.50 261.86,301.00 257.93,301.00 C253.66,301.00 252.89,301.39 249.48,305.25 C247.41,307.59 241.38,314.00 236.07,319.50 C230.77,325.00 222.28,333.85 217.21,339.16 L 208.00 348.82 L 208.00 365.16 L 207.99 381.50 L 204.49 381.58 C202.56,381.62 200.76,381.43 200.49,381.16 ZM 261.39 292.75 C262.81,290.50 261.14,287.63 258.16,287.18 C255.27,286.75 253.07,291.18 255.02,293.52 C256.64,295.48 259.93,295.08 261.39,292.75 ZM 217.71 381.38 C217.32,380.99 217.00,375.45 217.00,369.07 L 217.00 357.47 L 229.00 345.50 L 241.00 333.53 L 241.00 328.69 C241.00,324.67 241.50,323.35 243.92,320.92 C248.04,316.80 254.45,316.77 258.35,320.84 C265.43,328.24 259.72,340.20 249.80,338.75 C247.49,338.42 245.54,339.94 236.08,349.43 L 225.06 360.50 L 224.78 371.00 L 224.50 381.50 L 221.46 381.80 C219.79,381.96 218.11,381.77 217.71,381.38 ZM 254.61 329.42 C255.43,326.14 253.09,323.52 250.16,324.45 C245.62,325.89 246.79,332.00 251.60,332.00 C253.31,332.00 254.14,331.28 254.61,329.42 ZM 184.00 372.48 L 184.00 363.96 L 180.00 359.62 C176.30,355.60 176.00,354.85 176.00,349.51 C176.00,344.32 175.65,343.35 172.50,339.87 C168.54,335.48 167.98,331.54 170.67,326.99 C174.20,321.00 181.47,320.27 186.60,325.40 C191.19,329.99 191.35,335.34 187.04,339.96 C184.95,342.20 184.00,344.30 183.84,347.07 C183.64,350.42 184.16,351.58 187.30,354.80 L 191.00 358.58 L 191.00 369.79 L 191.00 381.00 L 187.50 381.00 L 184.00 381.00 L 184.00 372.48 ZM 182.40 334.85 C184.36,332.05 182.85,329.00 179.50,329.00 C175.99,329.00 174.28,332.55 176.58,335.08 C178.83,337.58 180.53,337.51 182.40,334.85 ZM 419.23 338.45 C412.14,336.54 408.61,334.60 403.30,329.71 C396.19,323.16 393.70,317.29 393.22,306.00 C392.88,298.08 393.17,295.56 394.94,290.85 C400.47,276.18 416.06,267.54 433.50,269.48 C451.18,271.44 461.84,283.16 462.82,301.70 L 463.25 310.00 L 435.50 310.00 L 407.75 310.00 L 408.35 313.01 C409.24,317.47 412.64,321.49 418.00,324.41 C426.52,329.04 440.70,327.38 447.55,320.95 C449.59,319.03 449.63,319.05 453.94,323.44 L 458.28 327.86 L 455.39 330.41 C449.39,335.72 437.44,340.02 429.00,339.92 C426.52,339.89 422.13,339.23 419.23,338.45 ZM 447.53 296.25 C446.11,290.53 443.63,286.87 439.62,284.54 C434.35,281.48 429.71,280.69 423.75,281.83 C415.77,283.36 409.99,288.68 407.55,296.75 L 406.87 299.00 L 427.54 299.00 L 448.22 299.00 L 447.53 296.25 ZM 556.80 338.66 C550.43,336.86 544.73,332.91 541.87,328.32 C540.00,325.31 539.50,323.11 539.50,317.93 C539.50,309.04 542.75,303.95 550.82,300.16 C556.05,297.71 557.70,297.47 571.84,297.16 L 587.19 296.82 L 586.51 293.19 C584.84,284.32 580.85,281.50 569.96,281.50 C564.62,281.50 562.24,282.09 557.00,284.68 C553.47,286.43 550.31,287.69 549.96,287.48 C548.41,286.52 543.87,279.03 544.36,278.23 C544.66,277.75 547.74,275.92 551.20,274.17 C569.94,264.72 593.02,268.90 599.31,282.89 C601.19,287.06 601.42,289.90 601.81,312.75 L 602.24 338.00 L 595.12 338.00 C588.71,338.00 587.99,337.80 587.88,336.00 C587.81,334.90 587.64,333.55 587.50,333.00 C587.36,332.45 587.19,331.70 587.12,331.33 C587.06,330.95 585.98,331.61 584.74,332.78 C578.69,338.46 565.75,341.18 556.80,338.66 ZM 579.70 324.87 C583.81,322.33 585.93,318.43 586.69,311.95 L 587.28 307.00 L 575.61 307.00 C562.91,307.00 558.41,308.15 555.63,312.12 C551.90,317.44 555.29,325.34 562.02,327.03 C567.12,328.31 575.87,327.24 579.70,324.87 ZM 666.32 338.62 C657.44,335.72 651.22,329.73 648.98,321.92 C648.44,320.05 648.00,307.58 648.00,294.21 L 648.00 269.91 L 655.25 270.21 L 662.50 270.50 L 663.00 294.00 C663.54,319.39 663.71,320.24 669.23,324.16 C671.74,325.95 673.82,326.47 678.48,326.48 C685.41,326.50 690.09,324.00 694.12,318.13 C696.41,314.79 696.52,313.79 697.00,292.58 L 697.50 270.50 L 704.75 270.21 L 712.00 269.91 L 712.00 303.96 L 712.00 338.00 L 704.50 338.00 L 697.00 338.00 L 697.00 333.30 L 697.00 328.61 L 693.75 331.75 C687.00,338.29 674.72,341.36 666.32,338.62 ZM 739.48 338.20 C728.26,334.32 723.59,328.35 723.59,317.91 C723.59,308.92 726.73,303.96 734.82,300.16 C740.06,297.70 741.68,297.48 755.87,297.18 L 771.23 296.86 L 770.59 292.68 C770.23,290.38 769.13,287.38 768.13,286.00 C763.85,280.12 751.56,279.66 740.64,284.98 L 734.50 287.97 L 731.26 284.24 C729.49,282.18 728.02,280.05 728.02,279.50 C728.00,278.07 735.63,273.50 741.50,271.44 C744.92,270.23 749.66,269.66 756.50,269.61 C764.87,269.56 767.34,269.92 771.63,271.85 C777.67,274.55 781.21,277.98 783.68,283.50 C785.21,286.92 785.52,291.14 785.81,312.75 L 786.15 338.00 L 779.08 338.00 L 772.00 338.00 L 772.00 334.50 C772.00,332.58 771.75,331.00 771.44,331.00 C771.13,331.00 769.17,332.37 767.08,334.05 C760.13,339.64 748.64,341.37 739.48,338.20 ZM 763.73 324.86 C768.39,321.98 770.03,319.08 770.70,312.58 L 771.28 307.00 L 759.61 307.00 C743.44,307.00 738.00,309.68 738.00,317.65 C738.00,321.50 742.64,326.63 746.76,327.34 C751.85,328.21 760.31,326.97 763.73,324.86 ZM 819.71 338.43 C813.30,336.41 807.67,330.70 806.16,324.72 C805.48,322.03 805.00,312.19 805.00,301.06 L 805.00 282.00 L 799.95 282.00 L 794.90 282.00 L 795.20 276.25 L 795.50 270.50 L 800.25 270.20 L 805.00 269.89 L 805.00 259.45 L 805.00 249.00 L 812.00 249.00 L 819.00 249.00 L 819.00 256.38 C819.00,260.43 819.28,265.16 819.62,266.88 L 820.25 270.00 L 828.96 270.00 C833.75,270.00 837.85,270.19 838.08,270.41 C838.31,270.64 838.35,273.33 838.16,276.38 L 837.82 281.93 L 828.66 282.21 L 819.50 282.50 L 819.19 295.50 C818.73,314.59 819.55,320.70 823.02,324.18 C826.46,327.61 831.52,327.95 835.27,325.00 C836.67,323.90 838.22,323.00 838.71,323.00 C839.60,323.00 844.00,331.27 844.00,332.95 C844.00,334.46 833.79,338.85 829.00,339.41 C826.31,339.73 822.57,339.33 819.71,338.43 ZM 348.22 304.25 L 348.50 270.50 L 356.00 270.50 L 363.50 270.50 L 363.66 274.00 C363.75,275.92 363.87,278.34 363.91,279.37 C363.98,280.85 364.85,280.36 368.08,277.04 C372.85,272.13 377.34,270.00 382.97,270.00 L 387.00 270.00 L 387.00 277.00 L 387.00 284.00 L 383.25 284.02 C378.94,284.05 372.29,286.83 369.79,289.65 C368.85,290.71 367.10,293.78 365.91,296.47 C363.93,300.96 363.76,302.87 363.91,319.68 L 364.07 338.00 L 356.00 338.00 L 347.93 338.00 L 348.22 304.25 ZM 492.47 336.79 C492.19,336.08 485.95,321.10 478.59,303.50 C471.24,285.90 465.42,271.16 465.67,270.75 C465.92,270.34 469.35,270.00 473.31,270.01 L 480.50 270.02 L 482.06 273.76 C482.92,275.82 487.39,286.84 492.01,298.25 C496.62,309.66 500.69,319.00 501.05,319.00 C501.41,319.00 506.23,308.09 511.77,294.75 L 521.84 270.50 L 529.42 270.21 C533.59,270.05 537.00,270.28 537.00,270.72 C537.00,271.16 530.78,286.37 523.18,304.51 L 509.36 337.50 L 501.16 337.79 C495.18,338.00 492.83,337.73 492.47,336.79 ZM 617.00 291.00 L 617.00 244.00 L 624.50 244.00 L 632.00 244.00 L 632.00 291.00 L 632.00 338.00 L 624.50 338.00 L 617.00 338.00 L 617.00 291.00 ZM 854.00 293.50 L 854.00 249.00 L 876.61 249.00 C905.22,249.00 912.37,250.51 919.78,258.09 C924.01,262.42 926.40,269.85 926.35,278.50 C926.27,290.13 921.29,298.75 911.75,303.78 L 907.99 305.75 L 918.29 320.63 C923.96,328.81 928.94,336.06 929.36,336.75 C929.95,337.72 927.91,337.99 920.31,337.95 L 910.50 337.90 L 906.44 331.70 C904.21,328.29 899.71,321.57 896.44,316.77 L 890.50 308.04 L 880.25 308.02 L 870.00 308.00 L 870.00 323.00 L 870.00 338.00 L 862.00 338.00 L 854.00 338.00 L 854.00 293.50 ZM 900.08 292.86 C907.39,290.67 911.74,283.10 910.35,275.00 C908.49,264.26 903.21,262.22 878.75,262.79 L 870.00 263.00 L 870.00 278.50 L 870.00 294.00 L 883.13 294.00 C890.36,294.00 897.99,293.49 900.08,292.86 ZM 115.81 304.00 L 115.50 281.50 L 105.13 281.00 L 94.77 280.50 L 100.13 275.58 C103.09,272.87 111.46,265.02 118.75,258.12 L 132.00 245.58 L 132.00 226.29 L 132.00 207.00 L 143.00 207.00 L 154.00 207.00 L 154.00 216.19 L 154.00 225.38 L 165.25 214.39 C176.08,203.81 192.51,188.16 200.17,181.13 C203.53,178.04 204.00,177.89 205.91,179.22 C207.05,180.02 215.75,188.06 225.24,197.08 C234.73,206.10 245.12,215.97 248.33,219.02 L 254.15 224.55 L 248.68 230.53 L 243.21 236.50 L 232.85 226.46 C211.31,205.56 205.34,200.00 204.43,200.00 C203.60,200.00 184.54,217.66 145.15,254.95 L 132.00 267.39 L 132.00 288.48 L 132.00 309.58 L 124.06 318.04 L 116.12 326.50 L 115.81 304.00 Z" fill="rgba(0,0,0,1)"/>
</g>
</svg>